<?xml version="1.0"?>
<svg xmlns="http://www.w3.org/2000/svg" xmlns:xlink="http://www.w3.org/1999/xlink" xmlns:svgjs="http://svgjs.com/svgjs" version="1.1" width="512" height="512" x="0" y="0" viewBox="0 0 64 64" style="enable-background:new 0 0 512 512" xml:space="preserve" class=""><g><g xmlns="http://www.w3.org/2000/svg" id="coding-setting-application-computer-currency"><path d="m38.16 29.68 1.84-.46v-2.44l-1.84-.46a1 1 0 0 1 -.62-1.49l.98-1.62-1.73-1.73-1.62.98a1 1 0 0 1 -1.49-.62l-.46-1.84h-2.44l-.46 1.84a1 1 0 0 1 -1.49.62l-1.62-.98-1.73 1.73.98 1.62a1 1 0 0 1 -.62 1.49l-1.84.46v2.44l1.84.46a1 1 0 0 1 .62 1.49l-.98 1.62 1.73 1.73 1.62-.98a1 1 0 0 1 1.49.62l.46 1.84h2.44l.46-1.84a1.02 1.02 0 0 1 .59-.69 1.057 1.057 0 0 1 .9.07l1.62.98 1.73-1.73-.98-1.62a1 1 0 0 1 .62-1.49zm-6.16 2.32a4 4 0 1 1 4-4 4 4 0 0 1 -4 4z" fill="#ffffff" data-original="#000000" style="" class=""/><circle cx="32" cy="28" r="2" fill="#ffffff" data-original="#000000" style="" class=""/><path d="m47 27v-19h-30v19h5v-1a1 1 0 0 1 .76-.97l1.29-.32-.69-1.15a1.014 1.014 0 0 1 .15-1.22l2.83-2.83a1.014 1.014 0 0 1 1.22-.15l1.15.69.32-1.29a1 1 0 0 1 .97-.76h4a1 1 0 0 1 .97.76l.32 1.29 1.15-.69a1.014 1.014 0 0 1 1.22.15l2.83 2.83a1.014 1.014 0 0 1 .15 1.22l-.69 1.15 1.29.32a1 1 0 0 1 .76.97v1zm-28-17h2v2h-2zm13 6h-13v-2h13zm0-4h-9v-2h9zm2-2h11v2h-11zm0 6v-2h11v2z" fill="#ffffff" data-original="#000000" style="" class=""/><path d="m11 20a1 1 0 0 1 1-1h3v-2h-6v9a1 1 0 0 1 -1 1h-4v9h7z" fill="#ffffff" data-original="#000000" style="" class=""/><path d="m29.19 42a17.955 17.955 0 0 1 .81 6.04 19.812 19.812 0 0 1 -.38 2.96h4.76a19.85 19.85 0 0 1 -.38-2.95 18.013 18.013 0 0 1 .81-6.05z" fill="#ffffff" data-original="#000000" style="" class=""/><path d="m51 37v-11h-2v2a1 1 0 0 1 -1 1h-6v1a1 1 0 0 1 -.76.97l-1.29.32.69 1.14a1.027 1.027 0 0 1 -.15 1.23l-2.83 2.83a1.014 1.014 0 0 1 -1.22.15l-1.15-.69-.32 1.29a1 1 0 0 1 -.97.76h-4a1 1 0 0 1 -.97-.76l-.32-1.29-1.15.69a1.014 1.014 0 0 1 -1.22-.15l-2.83-2.83a1.027 1.027 0 0 1 -.15-1.23l.69-1.14-1.29-.32a1 1 0 0 1 -.76-.97v-1h-6a1 1 0 0 1 -1-1v-7h-2v16a1 1 0 0 1 -1 1h-8v1a1 1 0 0 0 1 1h54a1 1 0 0 0 1-1v-1h-8a1 1 0 0 1 -1-1z" fill="#ffffff" data-original="#000000" style="" class=""/><path d="m7 16a1 1 0 0 1 1-1h7v-2h-3a1 1 0 0 1 -1-1v-2h-7v15h3z" fill="#ffffff" data-original="#000000" style="" class=""/><path d="m59 4h-54a1 1 0 0 0 -1 1v3h8a1 1 0 0 1 1 1v2h2v-4a1 1 0 0 1 1-1h32a1 1 0 0 1 1 1v9h2v-7a1 1 0 0 1 1-1h8v-3a1 1 0 0 0 -1-1z" fill="#ffffff" data-original="#000000" style="" class=""/><path d="m55 26v-4h-6v2h3a1 1 0 0 1 1 1v11h7v-9h-4a1 1 0 0 1 -1-1z" fill="#ffffff" data-original="#000000" style="" class=""/><path d="m53 17a1 1 0 0 1 -1 1h-3v2h7a1 1 0 0 1 1 1v4h3v-15h-7z" fill="#ffffff" data-original="#000000" style="" class=""/><path d="m48.87 53 4.67 9h5.59l-4.67-9z" fill="#ffffff" data-original="#000000" style="" class=""/><path d="m9.54 53-4.67 9h46.26l-4.67-9zm1.46 7h-2v-2h2zm3 0h-2v-2h2zm0-3h-2v-2h2zm3 3h-2v-2h2zm0-3h-2v-2h2zm3 3h-2v-2h2zm0-3h-2v-2h2zm3 3h-2v-2h2zm0-3h-2v-2h2zm3 3h-2v-2h2zm0-3h-2v-2h2zm3 3h-2v-2h2zm0-3h-2v-2h2zm3 3h-2v-2h2zm0-3h-2v-2h2zm3 3h-2v-2h2zm0-3h-2v-2h2zm3 3h-2v-2h2zm0-3h-2v-2h2zm3 3h-2v-2h2zm0-3h-2v-2h2zm3 3h-2v-2h2zm0-3h-2v-2h2zm3 3h-2v-2h2z" fill="#ffffff" data-original="#000000" style="" class=""/></g></g></svg>
