<?xml version="1.0"?>
<svg xmlns="http://www.w3.org/2000/svg" xmlns:xlink="http://www.w3.org/1999/xlink" xmlns:svgjs="http://svgjs.com/svgjs" version="1.1" width="512" height="512" x="0" y="0" viewBox="0 0 64 64" style="enable-background:new 0 0 512 512" xml:space="preserve" class=""><g><g xmlns="http://www.w3.org/2000/svg"><path d="m61 53v-23c0-2.757-2.243-5-5-5h-13v-3c0-1.054-.823-1.908-2.547-2.631.352-.412.547-.867.547-1.369 0-.492-.186-.952-.551-1.378 1.555-.669 2.551-1.524 2.551-2.622v-8c0-4.943-20.143-5-21-5s-21 .057-21 5v8c0 1.098.996 1.953 2.551 2.622-.365.426-.551.886-.551 1.378 0 .502.195.956.547 1.369-1.724.723-2.547 1.577-2.547 2.631v8c0 1.101 1 1.959 2.547 2.628-.362.425-.547.883-.547 1.372 0 .507.199.96.545 1.369-1.723.723-2.545 1.577-2.545 2.631v8c0 4.035 13.404 4.808 18 4.954v2.046h-2v5c0 2.757 2.243 5 5 5h36c2.757 0 5-2.243 5-5v-5zm-21.553-28c.573-.193 1.096-.405 1.553-.638v.638zm-17.447-22c11.665 0 18.37 1.898 18.984 3-.614 1.102-7.319 3-18.984 3-11.805 0-18.526-1.943-19-2.943v-.019c.474-1.095 7.195-3.038 19-3.038zm-19 11v-5.638c5.109 2.599 18.309 2.638 19 2.638s13.895-.039 19.002-2.639l.005 5.591c-.442 1.094-7.17 3.048-19.007 3.048s-18.565-1.954-19-3zm19 5c.586 0 10.177-.028 16.192-1.622.667.364.794.607.809.608-.309 1.054-6.407 3.014-17.001 3.014-10.605 0-16.705-1.964-17.003-2.976.001-.003.101-.259.811-.646 6.016 1.594 15.606 1.622 16.192 1.622zm-16.372 1.756c3.918 1.713 11.37 2.244 16.372 2.244s12.454-.531 16.373-2.244c2.196.665 2.582 1.238 2.631 1.205-.474 1.095-7.198 3.039-19.004 3.039-11.8 0-18.52-1.941-19-2.939v-.022c.035-.06.438-.62 2.628-1.283zm-2.628 9.244v-5.638c4.022 2.046 13.049 2.505 17.05 2.608-.649.843-1.05 1.886-1.05 3.03v2.95c-10.429-.313-15.649-2.109-16-2.95zm16 4.955v1.985c-9.45-.353-13.791-2.205-14.003-2.915.001-.003.099-.256.798-.64 4.32 1.156 10.4 1.48 13.205 1.57zm-13.385 1.805c3.725 1.629 10.43 2.068 13.385 2.184v2.007c-10.389-.313-15.606-2.094-16-2.89v-.022c.035-.06.436-.618 2.615-1.279zm-2.615 9.24v-5.628c3.914 1.997 12.504 2.471 16 2.583v5.995c-10.429-.313-15.649-2.109-16-2.95zm18-16c0-1.654 1.346-3 3-3h32c1.654 0 3 1.346 3 3v23h-38zm24.816 25c-.414 1.161-1.514 2-2.816 2h-6c-1.302 0-2.402-.839-2.816-2zm15.184 3c0 1.654-1.346 3-3 3h-36c-1.654 0-3-1.346-3-3v-3h13.101c.465 2.279 2.484 4 4.899 4h6c2.414 0 4.434-1.721 4.899-4h13.101z" fill="#ffffff" data-original="#000000" style="" class=""/><path d="m55 29h-30c-1.103 0-2 .897-2 2v18c0 1.103.897 2 2 2h30c1.103 0 2-.897 2-2v-18c0-1.103-.897-2-2-2zm0 20h-30v-18h30z" fill="#ffffff" data-original="#000000" style="" class=""/><path d="m19 5h2v2h-2z" fill="#ffffff" data-original="#000000" style="" class=""/><path d="m11 5h2v2h-2z" fill="#ffffff" data-original="#000000" style="" class=""/><path d="m15 5h2v2h-2z" fill="#ffffff" data-original="#000000" style="" class=""/><path d="m23 5h2v2h-2z" fill="#ffffff" data-original="#000000" style="" class=""/><path d="m31 5h2v2h-2z" fill="#ffffff" data-original="#000000" style="" class=""/><path d="m27 5h2v2h-2z" fill="#ffffff" data-original="#000000" style="" class=""/><path d="m45 33h-6v2h-4v2h-4v2h-4v8h18zm-10 6v6h-2v-6zm-6 2h2v4h-2zm8 4v-8h2v8zm6 0h-2v-10h2z" fill="#ffffff" data-original="#000000" style="" class=""/><path d="m47 33h6v2h-6z" fill="#ffffff" data-original="#000000" style="" class=""/><path d="m47 37h6v2h-6z" fill="#ffffff" data-original="#000000" style="" class=""/><path d="m47 41h6v2h-6z" fill="#ffffff" data-original="#000000" style="" class=""/><path d="m47 45h6v2h-6z" fill="#ffffff" data-original="#000000" style="" class=""/></g></g></svg>
